<svg width="89" height="89" viewBox="0 0 89 89" fill="none" xmlns="http://www.w3.org/2000/svg">
<g clip-path="url(#clip0_253_185)">
<path d="M4.63375 19.3615C4.63336 21.104 4.83108 25.7575 7.26086 29.4072C4.39131 33.8307 4.4557 39.113 4.49406 41.674C4.54635 45.1656 5.31241 48.4644 6.64428 51.0252C4.91918 52.177 4.69546 53.7467 4.69049 54.3971C2.36867 55.3038 0.843546 57.5257 0.881109 60.0339L0.968655 65.8796C1.01488 68.9661 3.38518 71.3953 6.46016 71.7471C35.4409 75.055 37.0468 87.9536 50.0335 87.7591C64.6445 87.5403 64.128 75.5575 83.1581 72.0899C86.0536 71.5621 88.2187 69.0385 88.1748 66.1018L88.0872 60.2561C88.0527 57.9489 86.7206 56.2572 85.4302 55.3899C85.2373 53.8088 84.0752 50.9857 80.8648 50.241L80.2301 7.85949C80.1807 4.56314 77.4526 1.92198 74.1482 1.97147L65.253 2.10469C62.0722 2.15232 60.5131 4.46866 59.8385 5.60178C58.8262 3.55148 56.7271 2.23237 54.3878 2.2674L45.4927 2.40062C41.3085 2.46328 40.3209 6.28456 38.9778 7.2985C35.6155 2.99628 30.3608 0.850973 23.3209 0.956404C11.317 1.13618 4.50541 7.84412 4.63375 19.3615Z" fill="#231F20"/>
<path d="M10.4835 41.4963C10.5299 45.6734 11.6305 48.7074 13.8482 50.772C16.124 52.89 19.4765 53.885 24.0991 53.8157C33.0546 53.6816 37.3637 49.5728 37.2715 41.2536C37.2479 39.1885 37.1288 37.0324 36.5122 35.0672C35.7194 32.5365 34.0823 30.3326 30.793 29.0328C35.994 27.3915 36.6787 23.0918 36.6345 19.0643C36.6143 17.2252 36.3856 15.6109 35.9452 14.2053C35.3981 12.4592 34.5218 11.0352 33.3085 9.9054C31.0863 7.838 27.849 6.86476 23.4102 6.93124C14.7166 7.06143 10.5346 11.1052 10.6249 19.2938C10.6457 21.1725 10.8438 22.7094 11.2456 23.9894C11.6041 25.1305 12.1214 26.0681 12.8175 26.8607C13.7697 27.9445 15.0494 28.6946 16.6681 29.1782C11.4527 31.3365 10.4159 35.5049 10.482 41.4933L10.4835 41.4963ZM23.4903 13.8472C24.3848 13.8338 25.1424 14.1116 25.7453 14.6722C26.7497 15.6069 27.2725 17.3064 27.2999 19.7237C27.3161 21.1988 27.3657 25.6901 23.7803 25.7438C22.8784 25.7573 22.1164 25.481 21.5164 24.9219C20.1673 23.6664 19.9867 21.3306 19.9679 19.6823C19.9259 15.9 21.1436 13.8823 23.4888 13.8472L23.4903 13.8472ZM19.8293 40.5005C19.7955 37.8512 19.7335 32.9212 23.7 32.8618C24.6901 32.847 25.5216 33.1472 26.1753 33.7554C27.8483 35.3143 27.8791 38.4539 27.8999 40.5293L27.9034 40.7612C27.9479 44.8166 26.6769 46.8086 24.0154 46.8485C22.9664 46.8642 22.095 46.5543 21.4219 45.9287C20.034 44.6371 19.8496 42.3439 19.8328 40.7309L19.8293 40.5005Z" fill="#231F20"/>
<path d="M43.283 23.6725L43.6411 47.5851C45.2812 46.4537 53.3921 46.3307 55.0623 47.4096L54.4758 8.24521L45.5806 8.37842C45.1535 9.33314 44.2618 10.5223 43.062 11.6663C41.7765 12.8922 40.3401 14.0587 38.5445 14.827L38.6865 24.3139C39.9983 24.4513 41.6127 24.16 43.283 23.6725Z" fill="#BDCC2A"/>
<path d="M33.3085 9.90688C31.0864 7.83947 27.849 6.86624 23.4103 6.93271C14.7167 7.06291 10.5347 11.1067 10.6249 19.2953C10.6457 21.174 10.8439 22.7109 11.2456 23.9909C11.6041 25.132 12.1215 26.0696 12.8176 26.8622C13.7698 27.946 15.0495 28.696 16.6681 29.1797C11.4528 31.338 10.416 35.5064 10.4821 41.4948C10.5285 45.672 11.629 48.706 13.8467 50.7705C16.1226 52.8885 19.475 53.8835 24.0977 53.8143C33.0532 53.6802 37.3622 49.5713 37.27 41.2522C37.2464 39.1871 37.1273 37.0309 36.5107 35.0657C35.7179 32.535 34.0809 30.3311 30.7916 29.0313C35.9926 27.39 36.6772 23.0903 36.6331 19.0628C36.6129 17.2237 36.3842 15.6095 35.9437 14.2038C35.3966 12.4578 34.5203 11.0338 33.307 9.90397L33.3085 9.90688ZM27.8999 40.5293L27.9034 40.7612C27.948 44.8166 26.6769 46.8086 24.0154 46.8485C22.9664 46.8642 22.095 46.5543 21.422 45.9287C20.0341 44.6371 19.8496 42.3439 19.8328 40.7309L19.8294 40.5005C19.7971 37.8512 19.735 32.9212 23.7015 32.8618C24.6916 32.847 25.5232 33.1472 26.1768 33.7554C27.8498 35.3143 27.8806 38.4539 27.9014 40.5293L27.8999 40.5293ZM27.3014 19.7237C27.3176 21.1988 27.3672 25.6901 23.7818 25.7438C22.8799 25.7573 22.1179 25.481 21.518 24.9219C20.1688 23.6664 19.9882 21.3306 19.9694 19.6823C19.9274 15.8999 21.1451 13.8823 23.4903 13.8472C24.3848 13.8338 25.1424 14.1116 25.7453 14.6722C26.7497 15.6069 27.2726 17.3064 27.2999 19.7237L27.3014 19.7237Z" fill="#BDCC2A"/>
<path d="M65.3659 8.0777C64.9387 9.03242 64.0471 10.2216 62.8458 11.3656C61.5603 12.5915 59.8679 13.7619 58.0723 14.5301L58.2143 24.017C59.5261 24.1545 61.3965 23.8593 63.0668 23.3718L63.5065 52.7353L74.9278 52.5642L74.2596 7.94451L65.3644 8.07773L65.3659 8.0777Z" fill="#BDCC2A"/>
<path d="M64.0665 68.8013C64.9904 64.3615 67.0319 59.3838 69.139 56.7113L79.4862 56.5564C71.3717 59.0927 66.5279 64.9315 64.0665 68.8013Z" fill="#519136"/>
<path d="M35.1256 69.2347C33.0438 64.2571 30.4258 60.324 26.9965 57.3425L13.3787 57.5464C23.9122 60.1 30.9932 64.7003 35.1256 69.2347Z" fill="#519136"/>
<path d="M58.8102 80.8016C63.9068 71.5034 74.0076 62.553 82.1061 61.1105L82.1937 66.9562C71.7712 68.6713 63.7058 74.984 58.8102 80.8016Z" fill="#7D5A41"/>
<path d="M42.8913 81.04C34.8291 71.9388 21.0147 62.5627 6.8819 60.7089L6.96944 66.5546C22.8028 67.8764 35.2666 75.4085 42.8913 81.04Z" fill="#7D5A41"/>
<path d="M63.505 52.7338L55.1292 52.8593L55.0865 50.0076C53.4146 48.914 45.3404 49.035 43.702 50.1781L43.7447 53.0298L35.3689 53.1552C35.5561 65.6582 38.7574 77.1941 49.8531 80.9254C49.8531 80.9254 49.8545 80.9254 49.856 80.9254C49.856 80.9254 49.8575 80.9254 49.8604 80.9253C60.9394 76.8604 63.6937 65.2353 63.5065 52.7323L63.505 52.7338Z" fill="#9D9FA2"/>
<path d="M45.7813 51.8454C45.7813 51.8454 45.7903 58.4439 48.7801 62.8354C48.033 58.9344 47.8699 56.1021 47.7816 51.5776C46.8197 51.5157 45.7813 51.8469 45.7813 51.8469L45.7813 51.8454Z" fill="#D1D3D4"/>
<path d="M49.8594 75.3587L49.8711 77.9025C49.8711 77.9025 57.3896 73.9893 59.0288 68.382C56.8353 71.0719 53.7742 74.2035 49.8594 75.3587Z" fill="#D1D3D4"/>
<path d="M86.737 49.008C86.2657 49.476 85.6954 49.7151 85.026 49.7251C84.3565 49.7351 83.7483 49.5079 83.269 49.0424C82.7882 48.5769 82.5426 47.9992 82.5323 47.3094C82.5219 46.6196 82.7686 45.9935 83.272 45.5118C83.745 45.0614 84.3052 44.8313 84.9525 44.8217C85.5999 44.812 86.214 45.042 86.7008 45.5133C87.1876 45.9846 87.4376 46.5592 87.4477 47.2358C87.4578 47.9124 87.2212 48.5222 86.737 49.0066L86.737 49.008ZM83.532 45.8734C83.1481 46.2785 82.9596 46.7569 82.9678 47.3044C82.976 47.8518 83.1821 48.3522 83.5838 48.7441C83.9841 49.1359 84.4637 49.3269 85.0213 49.3185C85.579 49.3102 86.0497 49.1035 86.4395 48.6969C86.8277 48.2888 87.0177 47.8045 87.0093 47.2424C87.0008 46.6803 86.7983 46.2253 86.3995 45.829C85.9961 45.427 85.5164 45.2286 84.9602 45.237C84.4041 45.2453 83.9202 45.4566 83.5305 45.872L83.532 45.8734ZM83.9297 48.6493L83.889 45.9327C84.0582 45.9302 84.3098 45.9264 84.6467 45.9228C84.9837 45.9178 85.1706 45.9179 85.2088 45.9188C85.4239 45.9317 85.6041 45.9745 85.7479 46.0502C85.9912 46.1801 86.1166 46.394 86.121 46.6934C86.1245 46.9224 86.0637 47.0877 85.9372 47.1924C85.8107 47.297 85.6557 47.361 85.4692 47.3829C85.6403 47.4156 85.7691 47.4665 85.8555 47.5342C86.0163 47.661 86.0988 47.8623 86.1029 48.1382L86.1066 48.3804C86.107 48.4068 86.1088 48.4332 86.1122 48.4596C86.1155 48.4859 86.1233 48.5123 86.1325 48.5385L86.1586 48.6145L85.4833 48.6246C85.46 48.5383 85.4434 48.4138 85.4351 48.251C85.4267 48.0882 85.4104 47.9768 85.3874 47.9199C85.3507 47.8251 85.282 47.76 85.1844 47.7248C85.1296 47.7036 85.0485 47.6901 84.9395 47.6859L84.7819 47.678L84.6319 47.6802L84.6462 48.6371L83.9297 48.6479L83.9297 48.6493ZM85.199 46.443C85.1013 46.4063 84.9628 46.3893 84.7862 46.3919L84.6126 46.3945L84.6245 47.1871L84.9011 47.1829C85.0673 47.1805 85.1963 47.1448 85.2895 47.0773C85.3811 47.0084 85.4266 46.9006 85.4244 46.7509C85.4221 46.6012 85.347 46.4995 85.2005 46.443L85.199 46.443Z" fill="#231F20"/>
</g>
<defs>
<clipPath id="clip0_253_185">
<rect width="87.193" height="87.193" fill="white" transform="translate(0 1.30567) rotate(-0.858005)"/>
</clipPath>
</defs>
</svg>
